<?xml version="1.0" encoding="UTF-8"?>
<svg id="Layer_1" xmlns="http://www.w3.org/2000/svg" version="1.1" viewBox="0 0 658.27 719.39">
  <!-- Generator: Adobe Illustrator 29.4.0, SVG Export Plug-In . SVG Version: 2.1.0 Build 152)  -->
  <defs>
    <style>
      .st0 {
        fill: #9f2064;
      }

      .st1 {
        fill: #66328f;
      }

      .st2 {
        fill: #fff;
      }

      .st3 {
        fill: #ea297c;
      }

      .st4 {
        fill: #d81f5f;
      }
    </style>
  </defs>
  <path class="st2" d="M419.92,472.78c-36.95,12.1-43.33,11.65-43.33,11.65,6.38-3.72,57.15-48.81,48.79-197.78-.77-16.37-.11-32.74.67-49.05.73-16.55,2.72-32.95,7.22-48.85,17.13-60.04,59.79-106.12,111.82-138.62,18.83-11.82,38.92-22.3,59.31-31.19,102.13,207.13-19.18,399.75-184.49,453.84"/>
  <path class="st2" d="M372.85,449.39c-8.86,28.37-11.94,32.17-11.94,32.17-3.47-50.6-67.53-95.58-93.47-113.5-14.64-10.23-29.87-19.79-43.72-31.21-7.84-6.52-15.02-13.75-21.55-21.7-29.71-37.27-39.47-84.23-36.51-131.01,1.06-16.99,3.38-34.14,6.8-50.69,215.08,39.57,240.16,189.15,200.39,315.94"/>
  <path class="st2" d="M326.05,467.13c16.57,18.47,17.97,22.26,17.97,22.26-43.19-12.28-65.13-1.32-95.7,8.46-31.2,10.03-57.99,29.86-91.13,34.43-39.24,5.43-77.05-7.65-109.36-29.52-11.71-7.96-23.05-16.89-33.35-26.5,102.51-108.63,237.63-91.57,311.59-9.12"/>
  <path class="st2" d="M344.61,510.1c-5.48,2.65-18.37,26.35-21.11,31.72-4.5,9.17-8.2,18.7-10.62,28.62-7.54,31.11-4.69,60.3-28.46,87.63-13.99,16.06-32.79,27.72-52.51,35.56-9.47,3.76-19.5,6.81-29.52,9.22-38.31-183.02,142.21-192.76,142.21-192.76"/>
  <path class="st1" d="M419.92,472.78c-36.95,12.1-43.33,11.65-43.33,11.65,6.38-3.72,57.15-48.81,48.79-197.78-.77-16.37-.11-32.74.67-49.05.73-16.55,2.72-32.95,7.22-48.85,17.13-60.04,59.79-106.12,111.82-138.62,18.83-11.82,38.92-22.3,59.31-31.19,102.13,207.13-19.18,399.75-184.49,453.84"/>
  <path class="st0" d="M372.85,449.39c-8.86,28.37-11.94,32.17-11.94,32.17-3.47-50.6-67.53-95.58-93.47-113.5-14.64-10.23-29.87-19.79-43.72-31.21-7.84-6.52-15.02-13.75-21.55-21.7-29.71-37.27-39.47-84.23-36.51-131.01,1.06-16.99,3.38-34.14,6.8-50.69,215.08,39.57,240.16,189.15,200.39,315.94"/>
  <path class="st4" d="M326.05,467.13c16.57,18.47,17.97,22.26,17.97,22.26-43.19-12.28-65.13-1.32-95.7,8.46-31.2,10.03-57.99,29.86-91.13,34.43-39.24,5.43-77.05-7.65-109.36-29.52-11.71-7.96-23.05-16.89-33.35-26.5,102.51-108.63,237.63-91.57,311.59-9.12"/>
  <path class="st3" d="M344.61,510.1c-5.48,2.65-18.37,26.35-21.11,31.72-4.5,9.17-8.2,18.7-10.62,28.62-7.54,31.11-4.69,60.3-28.46,87.63-13.99,16.06-32.79,27.72-52.51,35.56-9.47,3.76-19.5,6.81-29.52,9.22-38.31-183.02,142.21-192.76,142.21-192.76"/>
</svg>