<?xml version="1.0" encoding="UTF-8"?>
<svg id="Layer_1" xmlns="http://www.w3.org/2000/svg" version="1.1" width="160" viewBox="0 0 1726.4 719.39">
  <!-- Generator: Adobe Illustrator 29.4.0, SVG Export Plug-In . SVG Version: 2.1.0 Build 152)  -->
  <defs>
    <style>
      .st0 {
        fill: #9f2064;
      }

      .st1 {
        fill: #66328f;
      }

      .st2 {
        fill: #fff;
      }

      .st3 {
        fill: #ea297c;
      }

      .st4 {
        fill: #080909;
      }

      .st5 {
        fill: #d81f5f;
      }
    </style>
  </defs>
  <path class="st2" d="M348.02,381.28c-29.87,9.78-35.03,9.42-35.03,9.42,5.16-3.01,46.2-39.46,39.44-159.88-.63-13.23-.09-26.46.54-39.65.59-13.38,2.2-26.64,5.84-39.49,13.85-48.53,48.34-85.78,90.4-112.06,15.23-9.55,31.47-18.03,47.95-25.21,82.56,167.44-15.51,323.16-149.14,366.87"/>
  <path class="st2" d="M309.97,362.38c-7.16,22.93-9.65,26-9.65,26-2.81-40.91-54.59-77.26-75.56-91.75-11.84-8.27-24.15-16-35.35-25.23-6.34-5.27-12.14-11.11-17.42-17.54-24.01-30.13-31.91-68.09-29.52-105.9.86-13.74,2.73-27.6,5.5-40.97,173.87,31.99,194.14,152.91,162,255.4"/>
  <path class="st2" d="M272.14,376.72c13.4,14.93,14.52,17.99,14.52,17.99-34.92-9.93-52.65-1.07-77.37,6.84-25.23,8.1-46.88,24.14-73.67,27.83-31.72,4.39-62.29-6.18-88.41-23.87-9.47-6.43-18.63-13.66-26.96-21.42,82.87-87.81,192.1-74.02,251.88-7.38"/>
  <path class="st2" d="M287.14,411.46c-4.43,2.14-14.85,21.3-17.06,25.65-3.64,7.42-6.63,15.12-8.58,23.14-6.09,25.15-3.79,48.75-23,70.84-11.31,12.98-26.51,22.41-42.45,28.75-7.65,3.04-15.76,5.51-23.86,7.45-30.97-147.95,114.96-155.82,114.96-155.82"/>
  <path class="st4" d="M636.58,426.14h0c-58.52,0-105.56,48-105.64,106.97.07,57.49,47.82,104.87,105.16,104.97,58.18-.1,105.94-48.24,106.03-105.97-.09-57.76-48.2-105.86-105.55-105.98M704.95,531.41c-.17,40.83-30.14,71.84-68.36,71.86-37.59-.01-68.36-31.62-68.45-70.48,0-39.61,30.98-71.79,68.45-71.9h.15c15.32,0,32.38,6.72,45.02,18.16,15.27,13.46,23.02,31.05,23.19,52.36"/>
  <path class="st4" d="M1232.24,454.42c-18.47-18.38-44.37-28.28-73.36-28.28h-2.51c-28.92,0-54.82,9.9-73.39,28.28-18.53,18.32-29.71,45.15-29.71,78.37v87.92c0,9.53,7.73,17.38,17.36,17.38s17.33-7.85,17.33-17.38v-9.46c0-17.39,0-37.11.05-52.62v-26.51c.37-39.36,31.25-71.12,68.36-71.23h2.51c37.1.11,67.98,31.87,68.38,71.23v88.59c0,9.53,7.75,17.38,17.38,17.38s17.41-7.85,17.41-17.38v-87.92c0-33.22-11.17-60.05-29.82-78.37"/>
  <path class="st4" d="M827.14,426.14h-29.85v-52.94h-22.66c-2.64,0-6.81,1.39-9.65,5.2-.14.14-.25.4-.36.54-1.78,2.61-2.57,5.88-2.59,9.03,0,.31-.09.46-.09.71v231.78c0,9.74,7.98,17.63,17.61,17.63s17.74-7.89,17.74-17.63v-143.46c0-11.85,8.46-15.48,12.72-15.48h17.13c9.75,0,17.73-7.97,17.73-17.69s-7.98-17.69-17.73-17.69"/>
  <path class="st4" d="M1348.5,426.14h-29.85v-52.94h-22.7c-2.55,0-6.76,1.39-9.61,5.2-.1.14-.21.4-.37.54-1.73,2.61-2.56,5.88-2.59,9.03-.09.31-.09.46-.09.71v231.78c0,9.74,7.91,17.63,17.67,17.63s17.69-7.89,17.69-17.63v-143.46c0-11.85,8.43-15.48,12.63-15.48h17.21c9.78,0,17.64-7.97,17.64-17.69s-7.87-17.69-17.64-17.69"/>
  <path class="st4" d="M409.8,426.14c-29.12,0-55.04,9.92-73.72,28.33-18.61,18.38-29.79,45.28-29.79,78.65v158.18c0,9.61,7.78,17.42,17.48,17.42s17.35-7.81,17.35-17.42v-158.8c.42-39.49,31.35-71.43,68.74-71.43h.14c15.44,0,32.45,6.72,45.12,18.15,15.43,13.55,23.16,31.2,23.26,52.58-.11,39.97-29.19,69.41-66.21,70.9h-6.54c-9.84,0-17.63,7.89-17.63,17.67s7.79,17.58,17.63,17.58h6.54c1.76.11,3.91,0,5.2,0,4.04-.37,9.54-.96,11.76-1.33,48.88-9.57,86.53-53,86.58-104.11-.06-57.99-48.3-106.23-105.93-106.36"/>
  <path class="st4" d="M1552.89,426.14c29.13,0,55.02,9.92,73.72,28.33,18.6,18.38,29.82,45.28,29.82,78.65v87.56c0,9.57-7.79,17.42-17.45,17.42s-17.46-7.85-17.46-17.42v-71.38c0-5.19,0-9.38-.02-12.27v-4.53c-.36-39.49-31.3-71.43-68.61-71.43h-.14c-15.48,0-32.64,6.72-45.23,18.2-15.39,13.5-23.14,31.15-23.23,52.53.13,39.97,29.16,69.41,66.12,70.9h6.64c9.69,0,17.6,7.89,17.6,17.67s-7.91,17.58-17.6,17.58h-6.64c-1.7.11-3.87,0-5.15,0-4.02-.33-9.53-.96-11.72-1.33-48.89-9.57-86.54-53-86.58-104.11.06-57.99,48.28-106.23,105.93-106.36"/>
  <path class="st4" d="M1025.36,471.84c-12.75-18.91-30.94-33.86-52.95-40.85-6.01-1.9-12.12-3.18-18.4-4-4.43-.56-8.84-.85-13.3-.85h-.19c-28.65,0-54.12,9.75-72.64,27.67-8.2,8.1-15.12,17.7-20.15,28.84-7.93,14.72-12.59,31.63-12.67,49.43,0,32.22,16.47,68,42.97,86.8,7.27,5.13,15.7,9.57,24.08,12.39,12.38,4.29,25.42,6.8,38.59,6.8.3,0,26.84-.1,26.84-.1,9.72,0,17.55-7.79,17.55-17.53s-7.83-17.63-17.55-17.63l-26.84-.04c-27.18,0-52.91-17.59-62.67-42.78-3.35-9-5.67-18.36-5.67-27.88-.04-34.23,26.61-68.78,61.63-70.56,1.54-.04,3.02-.17,4.69-.17,8.75,0,19.33,1.36,26.24,4.51,13.94,6.32,25.68,15.56,33.5,28.51,2.17,3.67,4.63,9,4.59,13.09,0,1.69-.41,3.22-1.27,4.56-1.07,1.75-3.65,2.49-7.04,2.64h-68.44c-9.67,0-17.43,7.75-17.43,17.42s7.23,16.75,16.36,17.42h61.94c13.69-.15,30.79-2.07,41.67-13.32,4.89-5.06,7.91-11.58,9.14-18.38.49-2.53.76-5.06.76-7.62v-.73c-.29-14.53-5.59-26.22-13.34-37.65"/>
  <path class="st4" d="M1406.49,355.45c-14.64,0-26.46,11.9-26.46,26.64s11.82,26.53,26.46,26.53,26.66-11.95,26.66-26.53-11.94-26.64-26.66-26.64M1424.16,503.31v-77.17h-22.61c-2.6.04-6.73,1.44-9.59,5.25-.15.23-.3.38-.4.5-1.82,2.66-2.62,5.9-2.7,9.11v179.42c0,9.78,7.91,17.67,17.62,17.67s17.67-7.89,17.67-17.67v-117.11Z"/>
  <path class="st4" d="M1713.32,373.2h-22.59c-2.77,0-5.63,1.28-7.71,3.11-.87.77-1.64,1.63-2.35,2.63-1.85,2.61-2.51,5.88-2.6,9.03v232.45c0,9.78,7.84,17.67,17.64,17.67s17.61-7.89,17.61-17.67v-247.22Z"/>
  <path class="st1" d="M348.02,381.28c-29.87,9.78-35.03,9.42-35.03,9.42,5.16-3.01,46.2-39.46,39.44-159.88-.63-13.23-.09-26.46.54-39.65.59-13.38,2.2-26.64,5.84-39.49,13.85-48.53,48.34-85.78,90.4-112.06,15.23-9.55,31.47-18.03,47.95-25.21,82.56,167.44-15.51,323.16-149.14,366.87"/>
  <path class="st0" d="M309.97,362.38c-7.16,22.93-9.65,26-9.65,26-2.81-40.91-54.59-77.26-75.56-91.75-11.84-8.27-24.15-16-35.35-25.23-6.34-5.27-12.14-11.11-17.42-17.54-24.01-30.13-31.91-68.09-29.52-105.9.86-13.74,2.73-27.6,5.5-40.97,173.87,31.99,194.14,152.91,162,255.4"/>
  <path class="st5" d="M272.14,376.72c13.4,14.93,14.52,17.99,14.52,17.99-34.92-9.93-52.65-1.07-77.37,6.84-25.23,8.1-46.88,24.14-73.67,27.83-31.72,4.39-62.29-6.18-88.41-23.87-9.47-6.43-18.63-13.66-26.96-21.42,82.87-87.81,192.1-74.02,251.88-7.38"/>
  <path class="st3" d="M287.14,411.46c-4.43,2.14-14.85,21.3-17.06,25.65-3.64,7.42-6.63,15.12-8.58,23.14-6.09,25.15-3.79,48.75-23,70.84-11.31,12.98-26.51,22.41-42.45,28.75-7.65,3.04-15.76,5.51-23.86,7.45-30.97-147.95,114.96-155.82,114.96-155.82"/>
</svg>